<?xml version="1.0" encoding="UTF-8"?>
<svg height="36" viewBox="0 0 342 342" xmlns="http://www.w3.org/2000/svg">
<g fill-rule="evenodd">
<path class="logo-svg-shape logo-dark-orange-shape" d="m185.4 341.13 68.013-209.32h-136.02l68.01 209.32z" fill="#E24329"/>
<path class="logo-svg-shape logo-orange-shape" d="m185.4 341.13-68.013-209.32h-95.32l163.34 209.32z" fill="#FC6D26"/>
<path class="logo-svg-shape logo-light-orange-shape" d="m22.066 131.81-20.67 63.61c-1.884 5.803 0.18 12.16 5.117 15.744l178.88 129.97-163.33-209.32z" fill="#FCA326"/>
<path class="logo-svg-shape logo-dark-orange-shape" d="M22.066 131.808h95.32L76.42 5.735c-2.107-6.487-11.284-6.487-13.39 0L22.065 131.808z" fill="#E24329"/>
<path class="logo-svg-shape logo-orange-shape" d="m185.4 341.13 68.013-209.32h95.32l-163.33 209.32z" fill="#FC6D26"/>
<path class="logo-svg-shape logo-light-orange-shape" d="m348.73 131.81 20.67 63.61c1.884 5.803-0.18 12.16-5.117 15.744l-178.88 129.97 163.33-209.32z" fill="#FCA326"/>
<path class="logo-svg-shape logo-dark-orange-shape" d="m348.73 131.81h-95.32l40.966-126.07c2.108-6.487 11.285-6.487 13.392 0l40.963 126.07z" fill="#E24329"/>
</g>
</svg>