<?xml version="1.0" encoding="UTF-8"?>
<svg version="1.1" viewBox="0 0 445.47 148.48" xmlns="http://www.w3.org/2000/svg" xmlns:cc="http://creativecommons.org/ns#" xmlns:dc="http://purl.org/dc/elements/1.1/" xmlns:rdf="http://www.w3.org/1999/02/22-rdf-syntax-ns#" xmlns:xlink="http://www.w3.org/1999/xlink">
<defs>
<linearGradient id="a" x1="-90.914" x2="-90.914" y1="186.66" y2="169.49" gradientTransform="matrix(1.7871 0 0 1.7871 78.633 -13.764)" gradientUnits="userSpaceOnUse">
<stop stop-color="#274992" offset="0"/>
<stop stop-color="#3b5998" offset="1"/>
</linearGradient>
</defs>
<metadata>
<rdf:RDF>
<cc:Work rdf:about="">
<dc:format>image/svg+xml</dc:format>
<dc:type rdf:resource="http://purl.org/dc/dcmitype/StillImage"/>
<dc:title/>
</cc:Work>
</rdf:RDF>
</metadata>
<g transform="translate(151.01 -193.23)">
<rect x="-150.51" y="193.73" width="444.47" height="147.48" fill="#ededed" stroke="#b6b6b6"/>
<rect x="-137.1" y="214.22" width="106.51" height="106.51" rx="8.9357" ry="8.9357" fill="url(#a)" stroke="#0c0068" stroke-width="3.5743"/>
<path d="m-62.717 315.2h-18.43v-44.612h-9.2105v-15.373h9.2105v-9.23c0-12.542 5.1983-19.999 19.971-19.999h12.3v15.376h-7.6879c-5.7518 0-6.1304 2.148-6.1304 6.1582l-0.02263 7.6951h13.927l-1.6296 15.373h-12.298v44.612z" fill="#fff"/>
<g fill="#455984">
<path d="m-2.709 243.4v-11.847l-5.8369-13.366h5.3016l1.6578 4.559c0.31084 0.81742 0.5929 1.6348 0.84618 2.4522 0.25327 0.80591 0.49504 1.6291 0.7253 2.4695 0.20722-0.93251 0.43172-1.8017 0.67349-2.6076 0.24176-0.80587 0.48928-1.5312 0.74257-2.1759l1.8305-4.6972h4.9217l-5.8715 13.366v11.847h-4.9907" style=""/>
<path d="m12.989 239.62c0.8289 0 1.4679-0.4087 1.9169-1.2261 0.4605-0.82891 0.69075-2.0032 0.69076-3.5229-1.1e-5 -1.5082-0.23026-2.6709-0.69076-3.4883-0.449-0.82889-1.088-1.2434-1.9169-1.2434-0.82892 1e-5 -1.4679 0.40871-1.9169 1.2261-0.449 0.81741-0.6735 1.9859-0.67349 3.5056-6e-6 1.5312 0.22449 2.7055 0.67349 3.5229 0.44899 0.8174 1.0879 1.2261 1.9169 1.2261m7.063-4.7144c-1.5e-5 2.694-0.64472 4.8353-1.9341 6.4241-1.2779 1.5888-2.9875 2.3831-5.1289 2.3831-2.1529 0-3.8683-0.78862-5.1462-2.3658-1.2664-1.5888-1.8996-3.7359-1.8996-6.4413-8e-7 -2.6824 0.6332-4.8123 1.8996-6.3895 1.2779-1.5772 2.9933-2.3658 5.1462-2.3658 2.1529 1e-5 3.8682 0.79439 5.1462 2.3831 1.2779 1.5772 1.9168 3.7013 1.9169 6.3723" style=""/>
<path d="m34.817 226.46v8.7726c-1.4e-5 3.3847-0.44901 5.647-1.347 6.7867-0.88649 1.1282-2.4983 1.6924-4.8353 1.6924-2.3486 0-3.9776-0.56412-4.8871-1.6924-0.89799-1.1282-1.347-3.3905-1.347-6.7867v-8.7726h4.559v10.897c-6e-6 0.88648 0.12088 1.4851 0.36265 1.796 0.24176 0.31085 0.66773 0.46627 1.2779 0.46627 0.61016 0 1.0361-0.16118 1.2779-0.48353 0.25327-0.32235 0.37991-0.91526 0.37992-1.7787v-10.897h4.559" style=""/>
<path d="m56.282 226.46 1.3815 7.2702c0.08057 0.49505 0.17268 1.1743 0.2763 2.0377 0.1036 0.86346 0.21297 1.8478 0.32811 2.953 0.12663-1.0361 0.24751-2.009 0.36265-2.9185 0.12662-0.92101 0.23024-1.629 0.31084-2.1241l1.3124-7.2184h4.5245l-4.4554 16.941h-4.0409l-1.2261-7.0285c-0.05757-0.29933-0.14392-0.94979-0.25904-1.9514-0.10362-1.0016-0.21875-2.2392-0.34538-3.7128l-0.08635 0.82892c-0.27631 2.9357-0.43749 4.5475-0.48353 4.8353l-1.2434 7.0285h-4.0237l-4.4554-16.941h4.5245l1.2779 7.2184c0.03453 0.21875 0.17844 1.2779 0.43172 3.1775l0.24177 1.865c0.08058-0.96706 0.17268-1.8766 0.2763-2.7285 0.11512-0.86344 0.236-1.6118 0.36265-2.245l1.3297-7.2875h3.6783" style=""/>
<path d="m72.601 239.62c0.8289 0 1.4679-0.4087 1.9169-1.2261 0.4605-0.82891 0.69075-2.0032 0.69076-3.5229-1.1e-5 -1.5082-0.23026-2.6709-0.69076-3.4883-0.449-0.82889-1.088-1.2434-1.9169-1.2434-0.82892 1e-5 -1.4679 0.40871-1.9169 1.2261-0.449 0.81741-0.6735 1.9859-0.67349 3.5056-6e-6 1.5312 0.22449 2.7055 0.67349 3.5229 0.44899 0.8174 1.0879 1.2261 1.9169 1.2261m7.063-4.7144c-1.5e-5 2.694-0.64472 4.8353-1.9341 6.4241-1.2779 1.5888-2.9875 2.3831-5.1289 2.3831-2.1529 0-3.8683-0.78862-5.1462-2.3658-1.2664-1.5888-1.8996-3.7359-1.8996-6.4413 0-2.6824 0.6332-4.8123 1.8996-6.3895 1.2779-1.5772 2.9933-2.3658 5.1462-2.3658 2.1529 1e-5 3.8682 0.79439 5.1462 2.3831 1.2779 1.5772 1.9168 3.7013 1.9169 6.3723" style=""/>
<path d="m89.974 243.4v-10.258c-1e-5 -0.96705-0.11514-1.629-0.34538-1.9859-0.23026-0.3684-0.62169-0.5526-1.1743-0.55261-0.59867 1e-5 -1.0304 0.213-1.2952 0.63895-0.2648 0.42598-0.39719 1.1283-0.39719 2.1068v10.051h-4.6799v-16.941h4.3518v2.6249c0.61016-0.94403 1.2952-1.6463 2.055-2.1068 0.77134-0.46049 1.6405-0.69074 2.6076-0.69076 1.3239 2e-5 2.245 0.37418 2.763 1.1225 0.51806 0.74834 0.77709 2.222 0.7771 4.4209v11.57h-4.6626" style=""/>
<path d="m97.727 218.61h2.8321v9.6188h-2.8321v-9.6188" style=""/>
<path d="m104.24 243.4v-13.297h-1.8478v-3.6438h1.8478v-4.8871h4.6626v4.8871h1.8478v3.6438h-1.8478v13.297h-4.6626" style=""/>
<path d="m127.81 216.5v3.9719c-0.0691 2e-5 -0.14391 2e-5 -0.22449 0-0.0806-0.0115-0.18421-0.0173-0.31085-0.0173-0.58715 2e-5 -0.99009 0.1612-1.2088 0.48353-0.20723 0.32238-0.31084 1.2088-0.31084 2.6594v2.8666h2.055v3.5747h-2.055v13.366h-4.6626v-13.366h-1.6924v-3.5747h1.6924v-4.4899c0-1.1397 0.0691-1.9859 0.20723-2.5385 0.13815-0.5641 0.37416-1.0649 0.70803-1.5024 0.42596-0.52955 0.97282-0.9325 1.6406-1.2088 0.67925-0.27627 1.4679-0.41443 2.3659-0.41445 0.21873 2e-5 0.47201 0.0173 0.75983 0.0518 0.29932 0.0231 0.6447 0.0691 1.0361 0.13816" style=""/>
<path d="m129.64 221.94c0-0.77133 0.25328-1.416 0.75984-1.9341 0.51807-0.52956 1.1628-0.79435 1.9341-0.79437 0.7368 2e-5 1.3642 0.26481 1.8823 0.79437 0.52957 0.52961 0.79436 1.1743 0.79437 1.9341-1e-5 0.73683-0.25904 1.3643-0.7771 1.8823-0.51808 0.50658-1.1513 0.75986-1.8996 0.75984-0.77136 2e-5 -1.4161-0.2475-1.9341-0.74257-0.50656-0.50654-0.75984-1.1397-0.75984-1.8996m0.34538 21.465v-16.941h4.6799v16.941h-4.6799" style=""/>
<path d="m146.06 243.4v-10.258c-1e-5 -0.96705-0.11514-1.629-0.34538-1.9859-0.23027-0.3684-0.6217-0.5526-1.1743-0.55261-0.59866 1e-5 -1.0304 0.213-1.2952 0.63895-0.2648 0.42598-0.39719 1.1283-0.39719 2.1068v10.051h-4.6799v-16.941h4.3518v2.6249c0.61017-0.94403 1.2952-1.6463 2.055-2.1068 0.77134-0.46049 1.6406-0.69074 2.6076-0.69076 1.324 2e-5 2.245 0.37418 2.763 1.1225 0.51806 0.74834 0.77709 2.222 0.77711 4.4209v11.57h-4.6626" style=""/>
<path d="m162.05 234.67c-1e-5 -1.6233-0.16694-2.7918-0.5008-3.5056-0.32236-0.72529-0.85195-1.0879-1.5888-1.088-0.67925 1e-5 -1.1743 0.36266-1.4851 1.088-0.29934 0.72531-0.449 1.9054-0.449 3.5401 0 1.6233 0.16693 2.8379 0.5008 3.6438 0.34538 0.80589 0.86345 1.2088 1.5542 1.2088 0.70227 1e-5 1.2031-0.3684 1.5024-1.1052 0.31083-0.74832 0.46625-2.009 0.46626-3.7819m4.5245 8.7381h-4.5245v-2.4695c-0.449 0.94404-0.9901 1.6521-1.6233 2.1241-0.62169 0.46051-1.3412 0.69076-2.1586 0.69076-1.5542 0-2.7573-0.75984-3.6092-2.2795-0.85194-1.5312-1.2779-3.7013-1.2779-6.5104 0-2.7745 0.43748-4.9101 1.3124-6.4068 0.87496-1.5081 2.1126-2.2622 3.7128-2.2622 0.72529 2e-5 1.3873 0.213 1.9859 0.63895 0.61016 0.42599 1.1628 1.0707 1.6578 1.9341v-12.226h4.5245v26.767" style=""/>
<path d="m177.86 243.4v-16.941h4.3172v2.6249c0.58714-0.94403 1.2491-1.6463 1.9859-2.1068 0.73681-0.46049 1.56-0.69074 2.4695-0.69076 0.921 2e-5 1.6693 0.23603 2.245 0.70803 0.57562 0.47203 0.96129 1.1686 1.157 2.0896 0.65621-0.95554 1.347-1.6578 2.0723-2.1068 0.72528-0.46049 1.5082-0.69074 2.3486-0.69076 1.2318 2e-5 2.0895 0.42598 2.5731 1.2779 0.49502 0.85195 0.74254 2.6076 0.74257 5.267v10.569h-4.5936v-10.258c-2e-5 -0.95554-0.10363-1.6175-0.31084-1.9859-0.20724-0.3684-0.56414-0.5526-1.0707-0.55261-0.61018 1e-5 -1.0477 0.20148-1.3124 0.60441-0.2533 0.40296-0.37993 1.1167-0.37992 2.1414v10.051h-4.559v-10.258c-1e-5 -0.93251-0.10938-1.5945-0.32811-1.9859-0.20723-0.39142-0.55837-0.58714-1.0534-0.58715-0.62169 1e-5 -1.0707 0.213-1.347 0.63895-0.2648 0.42599-0.39719 1.1398-0.39719 2.1414v10.051h-4.559" style=""/>
<path d="m209.73 233.49c-0.0345-1.2318-0.25904-2.1413-0.67349-2.7285-0.40295-0.59864-1.0131-0.89797-1.8305-0.89799-0.8059 2e-5 -1.4218 0.31086-1.8478 0.93253-0.42597 0.62169-0.63896 1.5254-0.63895 2.7112l4.9907-0.0173m-4.9907 2.694v0.13815c-1e-5 1.2664 0.22449 2.2392 0.67349 2.9185 0.44899 0.67925 1.0879 1.0189 1.9169 1.0189 0.52957 0 0.97857-0.16117 1.347-0.48353 0.37991-0.32235 0.68499-0.81164 0.91526-1.4679h4.0237c-0.36842 1.6924-1.134 3.0163-2.2968 3.9719-1.1513 0.95556-2.5673 1.4333-4.2482 1.4333-2.1068 0-3.7819-0.78862-5.0253-2.3658-1.2434-1.5772-1.865-3.7071-1.865-6.3895 0-2.717 0.62169-4.8641 1.865-6.4413 1.2434-1.5772 2.9185-2.3658 5.0253-2.3658 2.2334 1e-5 3.9201 0.77712 5.0598 2.3313 1.1397 1.5542 1.7096 3.851 1.7096 6.8903v0.81165h-9.1008" style=""/>
<path d="m230.16 239.62c0.82891 0 1.4679-0.4087 1.9169-1.2261 0.4605-0.82891 0.69075-2.0032 0.69076-3.5229-1e-5 -1.5082-0.23026-2.6709-0.69076-3.4883-0.449-0.82889-1.088-1.2434-1.9169-1.2434-0.82892 1e-5 -1.4679 0.40871-1.9169 1.2261-0.449 0.81741-0.67349 1.9859-0.67349 3.5056 0 1.5312 0.22449 2.7055 0.67349 3.5229 0.44899 0.8174 1.0879 1.2261 1.9169 1.2261m7.063-4.7144c-1e-5 2.694-0.64472 4.8353-1.9341 6.4241-1.2779 1.5888-2.9876 2.3831-5.1289 2.3831-2.1529 0-3.8683-0.78862-5.1462-2.3658-1.2664-1.5888-1.8996-3.7359-1.8996-6.4413 0-2.6824 0.6332-4.8123 1.8996-6.3895 1.2779-1.5772 2.9933-2.3658 5.1462-2.3658 2.1529 1e-5 3.8682 0.79439 5.1462 2.3831 1.2779 1.5772 1.9168 3.7013 1.9169 6.3723" style=""/>
<path d="m247.54 243.4v-10.258c-1e-5 -0.96705-0.11514-1.629-0.34538-1.9859-0.23027-0.3684-0.6217-0.5526-1.1743-0.55261-0.59866 1e-5 -1.0304 0.213-1.2952 0.63895-0.2648 0.42598-0.39719 1.1283-0.39719 2.1068v10.051h-4.6799v-16.941h4.3518v2.6249c0.61017-0.94403 1.2952-1.6463 2.055-2.1068 0.77134-0.46049 1.6406-0.69074 2.6076-0.69076 1.324 2e-5 2.245 0.37418 2.763 1.1225 0.51806 0.74834 0.77709 2.222 0.77711 4.4209v11.57h-4.6626" style=""/>
</g>
<g fill="#455984">
<path d="m-8.5459 314.35v-58.455h25.224v10.81h-13.933v12.131h12.732v10.77h-12.732v24.743h-11.291" style=""/>
<path d="m40.3 294.1c-2.3e-5 -3.5766-0.42709-6.2325-1.2812-7.9674-0.82746-1.7349-2.122-2.6024-3.8836-2.6024-1.5748 3e-5 -2.7226 0.84082-3.4432 2.5224-0.694 1.6549-1.041 4.3641-1.041 8.1276-1.3e-5 3.7368 0.38702 6.5394 1.1611 8.4078 0.80073 1.8417 2.0019 2.7626 3.6034 2.7626 1.7082 1e-5 2.9494-0.89416 3.7235-2.6825 0.77403-1.7883 1.1611-4.6443 1.1611-8.568m10.169 20.259h-10.169v-5.8054c-1.1478 2.162-2.469 3.7902-3.9637 4.8846-1.4681 1.0944-3.0962 1.6415-4.8846 1.6415-3.7368 0-6.6062-1.735-8.608-5.2049-1.9752-3.4699-2.9628-8.5013-2.9628-15.094-3e-6 -6.406 1.0143-11.357 3.0428-14.854 2.0552-3.4966 4.9246-5.2449 8.608-5.2449 1.7349 4e-5 3.3097 0.52052 4.7244 1.5615 1.4413 1.041 2.7892 2.6558 4.0438 4.8445v-6.0056h10.169v39.277" style=""/>
<path d="m79.176 286.25c-0.85415-0.64057-1.6816-1.1077-2.4823-1.4013-0.80077-0.29357-1.6015-0.44038-2.4022-0.44041-2.082 3e-5 -3.7368 0.90755-4.9646 2.7226-1.2278 1.7884-1.8417 4.2173-1.8417 7.2868-1.3e-5 3.2297 0.61389 5.7254 1.8417 7.487 1.2545 1.735 3.0161 2.6024 5.2849 2.6024 0.85411 0 1.6549-0.16014 2.4022-0.48045 0.74734-0.34698 1.468-0.86747 2.162-1.5615v10.33c-1.1211 0.77405-2.3088 1.3479-3.5633 1.7216-1.2278 0.37369-2.5224 0.56053-3.8836 0.56053-4.591 0-8.2477-1.8284-10.97-5.4851-2.6959-3.6567-4.0438-8.6347-4.0438-14.934-2e-6 -6.2191 1.3613-11.157 4.0838-14.814 2.7225-3.6567 6.3659-5.4851 10.93-5.4851 1.3079 4e-5 2.5757 0.1335 3.8036 0.40037 1.2278 0.24027 2.4423 0.61395 3.6434 1.121v10.37" style=""/>
<path d="m104.72 291.37c-0.0801-2.856-0.60059-4.9646-1.5615-6.3259-0.93423-1.3879-2.3489-2.0819-4.244-2.0819-1.8684 3e-5 -3.2964 0.7207-4.284 2.162-0.9876 1.4414-1.4814 3.5367-1.4814 6.2859l11.571-0.04m-11.571 6.2458v0.3203c-1.3e-5 2.9361 0.52047 5.1915 1.5615 6.7663 1.041 1.5748 2.5223 2.3622 4.4442 2.3622 1.2278 1e-5 2.2688-0.37368 3.1229-1.121 0.8808-0.74735 1.5881-1.8818 2.122-3.4032h9.3287c-0.85416 3.9237-2.6292 6.9932-5.325 9.2086-2.6692 2.2154-5.9522 3.3231-9.8492 3.3231-4.8846 0-8.7682-1.8284-11.651-5.4851-2.8827-3.6567-4.324-8.5947-4.324-14.814-2e-6 -6.2992 1.4413-11.277 4.324-14.934 2.8827-3.6567 6.7663-5.4851 11.651-5.4851 5.1781 4e-5 9.0885 1.8017 11.731 5.405 2.6424 3.6034 3.9637 8.9284 3.9637 15.975v1.8818h-21.1" style=""/>
<path d="m135.11 283.45c-1.7083 3e-5 -2.9628 0.85416-3.7635 2.5624-0.77407 1.6816-1.1611 4.3774-1.1611 8.0876-1e-5 4.0304 0.37367 6.9265 1.121 8.6881 0.74735 1.7616 1.9618 2.6425 3.6434 2.6425 1.6015 0 2.7759-0.92086 3.5233-2.7626 0.77403-1.8684 1.1611-4.7778 1.1611-8.7282-2e-5 -3.6834-0.36036-6.3526-1.081-8.0075-0.7207-1.6548-1.8684-2.4823-3.4432-2.4823m-15.254 30.909v-62.058h10.41v28.346c1.1744-2.0018 2.4556-3.4966 3.8436-4.4842 1.4146-0.98755 2.9761-1.4813 4.6844-1.4814 3.7902 4e-5 6.6595 1.775 8.608 5.325 1.9752 3.55 2.9627 8.7415 2.9628 15.575-3e-5 6.1391-1.0143 10.944-3.0428 14.413-2.0019 3.4432-4.7511 5.1648-8.2477 5.1648-1.9218 0-3.6301-0.54718-5.1248-1.6415-1.468-1.121-2.6959-2.7492-3.6834-4.8846v5.7253h-10.41" style=""/>
<path d="m171.14 305.59c1.9218 1e-5 3.4032-0.94754 4.4442-2.8426 1.0676-1.9218 1.6015-4.6443 1.6015-8.1676-3e-5 -3.4966-0.53386-6.1924-1.6015-8.0876-1.041-1.9218-2.5224-2.8827-4.4442-2.8827-1.9218 3e-5 -3.4032 0.94758-4.4442 2.8426-1.041 1.8951-1.5615 4.6043-1.5615 8.1276-1e-5 3.55 0.52048 6.2725 1.5615 8.1676 1.041 1.8951 2.5223 2.8427 4.4442 2.8426m16.375-10.93c-3e-5 6.2458-1.4948 11.21-4.4842 14.894-2.9628 3.6834-6.9265 5.5252-11.891 5.5252-4.9913 0-8.9684-1.8284-11.931-5.4851-2.9361-3.6834-4.4041-8.6614-4.4041-14.934 0-6.2191 1.468-11.157 4.4041-14.814 2.9628-3.6567 6.9398-5.4851 11.931-5.4851 4.9913 4e-5 8.9684 1.8418 11.931 5.5252 2.9627 3.6568 4.4441 8.5814 4.4442 14.774" style=""/>
<path d="m207.5 305.59c1.9218 1e-5 3.4032-0.94754 4.4442-2.8426 1.0676-1.9218 1.6015-4.6443 1.6015-8.1676-3e-5 -3.4966-0.53386-6.1924-1.6015-8.0876-1.041-1.9218-2.5224-2.8827-4.4442-2.8827-1.9218 3e-5 -3.4032 0.94758-4.4442 2.8426-1.041 1.8951-1.5615 4.6043-1.5615 8.1276-1e-5 3.55 0.52047 6.2725 1.5615 8.1676 1.041 1.8951 2.5223 2.8427 4.4442 2.8426m16.375-10.93c-3e-5 6.2458-1.4948 11.21-4.4842 14.894-2.9628 3.6834-6.9265 5.5252-11.891 5.5252-4.9913 0-8.9684-1.8284-11.931-5.4851-2.9361-3.6834-4.4041-8.6614-4.4041-14.934 0-6.2191 1.468-11.157 4.4041-14.814 2.9628-3.6567 6.9398-5.4851 11.931-5.4851 4.9913 4e-5 8.9684 1.8418 11.931 5.5252 2.9627 3.6568 4.4441 8.5814 4.4442 14.774" style=""/>
<path d="m240.49 291.21c0.2669-0.72065 0.86746-2.0552 1.8017-4.0037 0.21351-0.42704 0.37366-0.74734 0.48045-0.9609l5.5652-11.17h12.211l-9.8092 16.335 10.57 22.941h-12.051l-8.7682-21.42v21.42h-10.85v-62.058h10.85v38.916" style=""/>
</g>
<g fill="#fff">
<path d="m-118.76 248.96v-10.258c-1e-5 -0.96705-0.11513-1.629-0.34538-1.9859-0.23026-0.36839-0.62169-0.5526-1.1743-0.55261-0.59867 1e-5 -1.0304 0.213-1.2952 0.63895-0.2648 0.42598-0.3972 1.1283-0.39719 2.1068v10.051h-4.6799v-16.941h4.3518v2.6249c0.61016-0.94402 1.2952-1.6463 2.055-2.1068 0.77134-0.46049 1.6405-0.69074 2.6076-0.69076 1.3239 2e-5 2.245 0.37418 2.763 1.1225 0.51805 0.74834 0.77709 2.222 0.7771 4.4209v11.57h-4.6626" style=""/>
<path d="m-104.64 245.18c0.82891 0 1.4679-0.4087 1.9169-1.2261 0.4605-0.82891 0.69075-2.0032 0.69076-3.5229-1e-5 -1.5081-0.23026-2.6709-0.69076-3.4883-0.449-0.8289-1.088-1.2434-1.9169-1.2434-0.82891 1e-5 -1.4679 0.40871-1.9168 1.2261-0.449 0.81741-0.6735 1.9859-0.6735 3.5056 0 1.5312 0.2245 2.7055 0.6735 3.5229 0.44898 0.8174 1.0879 1.2261 1.9168 1.2261m7.063-4.7144c-1.5e-5 2.694-0.64472 4.8353-1.9341 6.4241-1.2779 1.5888-2.9875 2.3831-5.1289 2.3831-2.1529 0-3.8683-0.78861-5.1462-2.3658-1.2664-1.5887-1.8996-3.7358-1.8996-6.4413 0-2.6824 0.6332-4.8123 1.8996-6.3895 1.2779-1.5772 2.9933-2.3658 5.1462-2.3658 2.1529 2e-5 3.8682 0.79439 5.1462 2.3831 1.2779 1.5772 1.9168 3.7013 1.9169 6.3723" style=""/>
<path d="m-94.622 248.96v-13.297h-1.8478v-3.6438h1.8478v-4.8871h4.6626v4.8871h1.8478v3.6438h-1.8478v13.297h-4.6626" style=""/>
</g>
<g fill="#fff">
<path d="m-56.829 290.16h2.8321v9.6188h-2.8321v-9.6188" style=""/>
<path d="m-42.789 306.22c-1e-5 -1.6233-0.16694-2.7918-0.5008-3.5056-0.32236-0.72528-0.85195-1.0879-1.5887-1.0879-0.67926 1e-5 -1.1743 0.36266-1.4851 1.0879-0.29934 0.72531-0.449 1.9054-0.44899 3.5402-6e-6 1.6233 0.16693 2.8379 0.5008 3.6438 0.34537 0.80589 0.86344 1.2088 1.5542 1.2088 0.70226 0 1.2031-0.3684 1.5024-1.1052 0.31083-0.74831 0.46625-2.009 0.46626-3.7819m4.5245 8.7381h-4.5245v-2.4695c-0.449 0.94404-0.9901 1.6521-1.6233 2.1241-0.62169 0.4605-1.3412 0.69076-2.1586 0.69076-1.5542 0-2.7573-0.75984-3.6092-2.2795-0.85194-1.5312-1.2779-3.7013-1.2779-6.5104-1e-6 -2.7745 0.43748-4.9101 1.3124-6.4068 0.87496-1.5082 2.1126-2.2622 3.7128-2.2622 0.72529 1e-5 1.3873 0.213 1.9859 0.63895 0.61016 0.42598 1.1628 1.0707 1.6578 1.9341v-12.226h4.5245v26.767" style=""/>
</g>
</g>
</svg>