<?xml version="1.0" encoding="UTF-8" standalone="no"?>
<svg id="Layer_1" data-name="Layer 1" xmlns="http://www.w3.org/2000/svg" viewBox="0 0 128 128">
    <defs>
        <style>.cls-1{fill:#2e79bd;}.cls-2{fill:#fff;}</style>
    </defs>
    <title>n</title>
    <path class="cls-1" d="M87.646,78.6834l-3.98515,4.257A10.824,10.824,0,0,1,74.138,86.253l-5.76665-.85857-5.50193,1.91744a10.81275,10.81275,0,0,1-9.9736-1.48814L48.188,82.38235l-5.76665-.85852a10.5456,10.5456,0,0,1-3.89214-1.37373v44.38753l24.011-16.12663a2.61437,2.61437,0,0,1,2.91911,0l24.011,16.12663v-46.491Z" />
    <path class="cls-2" d="M102.031,32.30589l-4.65241-5.5487L95.83773,19.682a5.12635,5.12635,0,0,0-3.06125-3.651l-6.6981-2.751L81.426,7.73118A5.12629,5.12629,0,0,0,77.01867,5.921l-7.20933.67678-6.6981-2.751a5.12623,5.12623,0,0,0-4.74372.44533L52.29846,8.24176l-7.20933.67682a5.1263,5.1263,0,0,0-3.9934,2.59885l-3.53838,6.31766-6.069,3.9496a5.12621,5.12621,0,0,0-2.32823,4.157L28.963,33.18,25.4246,39.49771a5.1263,5.1263,0,0,0-.1297,4.7628l3.18933,6.5009-.19712,7.23833a5.12629,5.12629,0,0,0,2.09854,4.27756l5.84508,4.27406L39.42,73.05225a5.12637,5.12637,0,0,0,3.84607,2.8123l7.16182,1.06818L56.273,81.20679a5.12608,5.12608,0,0,0,4.71245.70285l6.83789-2.38243,7.16182,1.06813a5.12619,5.12619,0,0,0,4.4993-1.56766l4.94747-5.28726L91.26982,71.358a5.12624,5.12624,0,0,0,3.2554-3.479l1.92364-6.98086,4.94747-5.2873a5.1263,5.1263,0,0,0,1.26573-4.59337l-1.54089-7.07523,1.92364-6.98086A5.12624,5.12624,0,0,0,102.031,32.30589ZM64,66.29327A23.46454,23.46454,0,1,1,87.46454,42.82875,23.46451,23.46451,0,0,1,64,66.29327Z" />
</svg>