<?xml version="1.0" encoding="UTF-8"?>
<svg width="210mm" height="210mm" version="1.1" viewBox="0 0 210 210" xmlns="http://www.w3.org/2000/svg" xmlns:cc="http://creativecommons.org/ns#" xmlns:dc="http://purl.org/dc/elements/1.1/" xmlns:rdf="http://www.w3.org/1999/02/22-rdf-syntax-ns#">
<metadata>
<rdf:RDF>
<cc:Work rdf:about="">
<dc:format>image/svg+xml</dc:format>
<dc:type rdf:resource="http://purl.org/dc/dcmitype/StillImage"/>
<dc:title/>
</cc:Work>
</rdf:RDF>
</metadata>
<circle cx="105" cy="105" r="105" fill="#fff"/>
<path d="m45 43c-50 7-50 77 5 82" fill="none" stroke="#fa6405" stroke-linecap="round" stroke-width="1.0108"/>
<ellipse cx="59.399" cy="143.64" rx="37.498" ry="36.643" fill="none" stroke="#0226fd" stroke-linecap="round" stroke-width="1.0005"/>
<path d="m47.719 128.73 7.3154-0.5232 5.8764 1.2268 7.8105 3.6207 0.44083 0.71959-5.4958 0.67816-2.8235 0.44914-4.4856 1.2987-3.2182 0.54042-8.3884-0.44239" fill="none" stroke="#000" stroke-linecap="round" stroke-linejoin="round" stroke-width=".84667"/>
<path d="m81.649 112.91 16.273-3.5212-2.0666 2.1829-1.1075 1.6708-0.84529 2.0254-0.72458 2.1365-2.9357 3.537" fill="none" stroke="#000" stroke-linecap="round" stroke-linejoin="round" stroke-width=".76729"/>
<path d="m89.708 113.98 5.1111-3.6238-0.01434 0.0805" fill="none" stroke="#000" stroke-linecap="round" stroke-linejoin="round" stroke-width=".68792"/>
<path d="m52.43 100.19 2.1392 1.01 2.1053 0.57452 1.8982-0.22261 4.6692-2.6216 4.1023-2.4803 0.6622 0.0052-0.96906 4.2722-1.1346 2.5863-1.3581 1.439-0.79033 0.44076-0.8803 0.18409-1.8658 0.11813-2.1283-0.59933-2.6827-1.7941z" stroke="#000" stroke-linecap="round" stroke-linejoin="round" stroke-width=".635"/>
<path d="m58.346 102.34 1.4367-0.54115 6.2819-3.7192 0.58127 2.5025-1.271 2.7914-1.0795 0.96033-1.9939 0.6435-1.665-0.06-1.4859-0.47717-0.73169-0.48921z" fill="#fa6405" stroke="#fa6405" stroke-linecap="round" stroke-linejoin="round" stroke-width=".50632"/>
<path d="m10.335 93.379 12.042-7.1046c2.4345-0.07072 4.5426-1.0695 7.3035-0.21216v0" fill="none" stroke="#000" stroke-linecap="round" stroke-linejoin="round" stroke-width="1.0848"/>
<path d="m47.444 78.837 4.7163-0.06512 7.1667-4.696" fill="none" stroke="#000" stroke-linecap="round" stroke-linejoin="round" stroke-width="1.0848"/>
<path d="m9.6236 78.325 5.4853-3.8634 1.4279-0.43237 1.0426 1.768 5.0904 0.59199 1.7783-1.4293 0.59261-3.891 0.48301-4.6812s0.57508-1.3671 1.297-1.2391l0.72192 0.128 2.1077 3.043 0.98399 0.7709s2.0436 0.52326 3.585 0.48303c1.5414-0.04023 1.8073-2.3529 1.8073-2.3529l2.3463-4.0332 7.2691 1.0192 1.9441-1.9309 0.78716-2.5498 5.5441-1.2079 1.9992-3.5641 1.7835-0.74176 5.3834-0.08649 0.16431-1.5547-3.0538-2.0396-0.65181-3.7194-3.046-1.9956-3.1539-0.75511-4.3192-1.0343-3.9255 0.01712v0" fill="none" stroke="#000" stroke-linecap="round" stroke-linejoin="round" stroke-width="1.27"/>
<path d="m36.442 53.88 0.82551-1.1639 3.098-0.42656 3.8273-0.17008s1.9949-0.31946 3.011-0.15195l1.0161 0.1675 1.9423 0.56759 2.3122-0.18729 1.381-0.78048 0.15382-0.6599-0.69026-0.99658-0.89398-1.1656 1.3782-0.44923v0" fill="none" stroke="#000" stroke-linecap="round" stroke-linejoin="round" stroke-width=".74083"/>
<text transform="matrix(.98009 -.34131 .27978 .92288 0 0)" x="2.1076217" y="107.28533" fill="#fa6405" font-family="sans-serif" font-size="35.972px" stroke-width=".38542" style="font-variant-caps:normal;font-variant-east-asian:normal;font-variant-ligatures:normal;font-variant-numeric:normal;line-height:1.25" xml:space="preserve"><tspan x="2.1076217" y="107.28533" fill="#fa6405" font-family="sans-serif" font-size="35.972px" stroke-width=".38542" style="font-variant-caps:normal;font-variant-east-asian:normal;font-variant-ligatures:normal;font-variant-numeric:normal">o</tspan></text>
<text transform="matrix(.90168 -.3852 .3643 .95341 0 0)" x="27.045544" y="102.92632" fill="#000000" font-family="sans-serif" font-size="11.307px" stroke-width=".28267" style="line-height:1.25" xml:space="preserve"><tspan x="27.045544" y="102.92632" fill="#fa6405" font-family="sans-serif" font-size="26.382px" stroke-width=".28267" style="font-variant-caps:normal;font-variant-east-asian:normal;font-variant-ligatures:normal;font-variant-numeric:normal">D I N G</tspan></text>
<text transform="rotate(-20)" x="55.131275" y="165.58549" fill="#0226fd" font-family="sans-serif" font-size="24.694px" stroke-width=".26458" style="font-variant-caps:normal;font-variant-east-asian:normal;font-variant-ligatures:normal;font-variant-numeric:normal;line-height:1.25" xml:space="preserve"><tspan x="55.131275" y="165.58549" fill="#0226fd" font-family="sans-serif" font-size="24.694px" stroke-width=".26458" style="font-variant-caps:normal;font-variant-east-asian:normal;font-variant-ligatures:normal;font-variant-numeric:normal">T A K U</tspan></text>
<path transform="scale(.26458)" d="m145.18 348.72c-7.2557-3.386-12.66-11.801-15.001-23.361-2.0918-10.327 0.0479-18.173 6.5501-24.019 7.9164-7.1175 18.31-7.4612 25.816-0.8536 4.3167 3.7997 6.717 7.6143 8.9825 14.275 5.6401 16.583 0.7197 29.967-12.685 34.507-4.9655 1.6816-9.2512 1.5092-13.663-0.54937z" fill="#0226fd" fill-rule="evenodd" stroke="#fa6405" stroke-linecap="round" stroke-linejoin="round" stroke-width=".75007"/>
<path transform="scale(.26458)" d="m238.65 288.99c-5.5233-14.468-9.9112-26.406-9.7509-26.53 0.63154-0.48583 13.218-5.6134 16.043-6.5356 4.8877-1.5957 12.979-1.3169 16.501 0.56848 8.9068 4.7676 16.145 18.918 16.11 31.493-0.0299 10.633-4.5412 16.481-17.545 22.742-12.415 5.9772-9.7376 8.7021-21.358-21.738z" fill="#0226fd" fill-rule="evenodd" stroke="#fa6405" stroke-linecap="round" stroke-linejoin="round" stroke-width=".75007"/>
<path d="m38.047 87.058s0.13368-6.0836 3.1607-4.4867l3.027 1.5968" fill="none" stroke="#000" stroke-width=".26458px"/>
<path d="m65.235 76.937s-1.0158-6.9117 2.0114-5.0514l3.0272 1.8602" fill="none" stroke="#000" stroke-width=".26458px"/>
</svg>
